<svg id="Layer_1" data-name="Layer 1" xmlns="http://www.w3.org/2000/svg" xmlns:xlink="http://www.w3.org/1999/xlink" viewBox="0 0 340.45 130.9"><defs><style>.cls-1{fill:url(#linear-gradient);}.cls-2{fill:none;}.cls-3{clip-path:url(#clip-path);}.cls-4{clip-path:url(#clip-path-2);}.cls-5{fill:url(#linear-gradient-2);}.cls-6{clip-path:url(#clip-path-3);}.cls-7{mask:url(#mask);}.cls-8{fill:url(#linear-gradient-3);}.cls-9{fill:#fff;}</style><linearGradient id="linear-gradient" y1="511.91" x2="1" y2="511.91" gradientTransform="matrix(0, -68.56, -68.56, 0, 35445.96, 255.81)" gradientUnits="userSpaceOnUse"><stop offset="0" stop-color="#fff"/><stop offset="0.09" stop-color="#f1f1f1"/><stop offset="0.27" stop-color="#ccc"/><stop offset="0.51" stop-color="#8f8f8f"/><stop offset="0.8" stop-color="#3d3d3d"/><stop offset="1"/></linearGradient><clipPath id="clip-path" transform="translate(-102.81 -170.25)"><rect class="cls-2" width="512" height="512"/></clipPath><clipPath id="clip-path-2" transform="translate(-102.81 -170.25)"><path class="cls-2" d="M204.34,173.27C164.15,178.37,119,189,107.26,210c-4.45,8-4.14,17.44,3,28.69,9.62,15.11,30,27.07,53.13,35.45,46.46,16.86,106.13,27,158.53,14,80.94-20.08,121.32-78,26.46-105.16-29.81-8.54-62.83-12.75-95.84-12.75a383.83,383.83,0,0,0-48.22,3"/></clipPath><linearGradient id="linear-gradient-2" y1="511.85" x2="1" y2="511.85" gradientTransform="matrix(0, -123.82, -123.82, 0, 63544.72, 123.82)" gradientUnits="userSpaceOnUse"><stop offset="0" stop-color="#008292"/><stop offset="0.15" stop-color="#078492"/><stop offset="0.36" stop-color="#198a92"/><stop offset="0.6" stop-color="#379392"/><stop offset="0.87" stop-color="#61a092"/><stop offset="1" stop-color="#77a792"/></linearGradient><clipPath id="clip-path-3" transform="translate(-102.81 -170.25)"><path class="cls-2" d="M324.35,188.91c-13.33,2.82-28.29,8.69-32.2,20.36-1.48,4.42-1.37,9.66,1,15.89,3.2,8.37,10,15,17.62,19.63,15.42,9.34,35.21,14.94,52.59,7.74,26.85-11.12,40.24-43.18,8.78-58.23a73.83,73.83,0,0,0-31.79-7.06,77.47,77.47,0,0,0-16,1.67"/></clipPath><mask id="mask" x="187.87" y="16.99" width="112.93" height="72.49" maskUnits="userSpaceOnUse"><g transform="translate(-102.81 -170.25)"><rect class="cls-1" x="290.67" y="187.24" width="112.93" height="72.49"/></g></mask><linearGradient id="linear-gradient-3" y1="511.91" x2="1" y2="511.91" gradientTransform="matrix(0, -68.56, -68.56, 0, 35343.15, 85.55)" gradientUnits="userSpaceOnUse"><stop offset="0" stop-color="#77a792"/><stop offset="0.17" stop-color="#69a392"/><stop offset="0.5" stop-color="#449792"/><stop offset="0.94" stop-color="#088592"/><stop offset="1" stop-color="#008292"/></linearGradient></defs><g class="cls-3"><g class="cls-4"><rect class="cls-5" width="340.45" height="130.9"/></g><g class="cls-6"><g class="cls-7"><rect class="cls-8" x="187.87" y="16.99" width="112.93" height="72.49"/></g></g><g class="cls-3"><polygon class="cls-9" points="83.22 56.97 83.22 40.57 88.02 40.57 88.02 78.07 83.22 78.07 83.22 61.73 63.35 61.73 63.35 78.07 58.53 78.07 58.53 40.57 63.35 40.57 63.35 56.97 83.22 56.97"/><path class="cls-9" d="M219.08,234.67V219.24h4.6V234c0,4.51-1.16,8.14-3.48,10.86a11.72,11.72,0,0,1-17.81,0c-2.35-2.72-3.52-6.35-3.52-10.86V219.24h4.6v15.43a10.37,10.37,0,0,0,2.22,7,7.1,7.1,0,0,0,5.62,2.58,7,7,0,0,0,5.55-2.59,10.39,10.39,0,0,0,2.22-7" transform="translate(-102.81 -170.25)"/><path class="cls-9" d="M244.9,218.64a13.15,13.15,0,0,1,7,1.94,13.41,13.41,0,0,1,4.92,5.38,16.66,16.66,0,0,1,1.78,7.75,15.35,15.35,0,0,1-4,10.85,13.17,13.17,0,0,1-10.09,4.29,13,13,0,0,1-10.08-4.33,15.94,15.94,0,0,1-3.94-11.18V208.81h4.69v14.51a11.36,11.36,0,0,1,4.33-3.49,12.64,12.64,0,0,1,5.35-1.19m-7,22.65a9.25,9.25,0,0,0,13.46,0,12.13,12.13,0,0,0,0-15.1,9.31,9.31,0,0,0-13.47,0,12.14,12.14,0,0,0,0,15.09" transform="translate(-102.81 -170.25)"/><path class="cls-9" d="M278.83,218.64a13.09,13.09,0,0,1,7,1.94,13.41,13.41,0,0,1,4.92,5.38,16.66,16.66,0,0,1,1.78,7.75,15.34,15.34,0,0,1-4,10.85,13.19,13.19,0,0,1-10.1,4.29,13,13,0,0,1-10.08-4.33,16,16,0,0,1-3.94-11.18V208.81h4.7v14.51a11.26,11.26,0,0,1,4.32-3.49,12.65,12.65,0,0,1,5.36-1.19m-7.05,22.65a9.26,9.26,0,0,0,13.47,0,12.17,12.17,0,0,0,0-15.1,8.76,8.76,0,0,0-6.77-2.88,8.66,8.66,0,0,0-6.7,2.88,10.71,10.71,0,0,0-2.62,7.51,10.86,10.86,0,0,0,2.63,7.58" transform="translate(-102.81 -170.25)"/><rect class="cls-9" x="196.06" y="38.55" width="4.58" height="39.52"/><path class="cls-9" d="M331.21,230.85V219.19h4.72v10.54q0,6.93-2.76,10.74a10.81,10.81,0,0,1-7.53,4.48v12.53H321V244.9a11.38,11.38,0,0,1-4.07-1.46,11.7,11.7,0,0,1-3.22-2.92,13.26,13.26,0,0,1-2.16-4.58,23.25,23.25,0,0,1-.77-6.21V219.19h4.7v11.66a13.58,13.58,0,0,0,.67,4.48,7.86,7.86,0,0,0,1.82,3.06,8,8,0,0,0,2.5,1.69,7.81,7.81,0,0,0,2.9.58,7.32,7.32,0,0,0,2.92-.53,7.57,7.57,0,0,0,2.49-1.7,7.81,7.81,0,0,0,1.77-3.09,14,14,0,0,0,.65-4.49" transform="translate(-102.81 -170.25)"/></g></g></svg>